<?xml version="1.0" encoding="UTF-8"?>
<svg version="1.1" xmlns="http://www.w3.org/2000/svg" width="1920" height="1080">
<path d="M0 0 C633.6 0 1267.2 0 1920 0 C1920 356.4 1920 712.8 1920 1080 C1286.4 1080 652.8 1080 0 1080 C0 723.6 0 367.2 0 0 Z " fill="#212722" transform="translate(0,0)"/>
<path d="M0 0 C0.33 85.14 0.66 170.28 1 258 C3.64 252.72 6.28 247.44 9 242 C13.48354191 234.47405464 18.42126075 227.73749237 24 221 C24.763125 219.989375 25.52625 218.97875 26.3125 217.9375 C45.60422386 196.85119717 78.65038055 183.31686348 107 182 C137.7510467 180.86948159 169.08168154 183.31514082 193 205 C193.76957031 205.68835938 194.53914063 206.37671875 195.33203125 207.0859375 C207.77639546 218.83070373 214.48583649 233.43815266 218.25 249.875 C218.40114258 250.53258301 218.55228516 251.19016602 218.70800781 251.86767578 C221.9784219 267.45566529 222.29192377 283.03670864 222.27124023 298.89697266 C222.27563727 301.15097744 222.28094295 303.4049806 222.28707886 305.65898132 C222.29850136 310.47906102 222.30403251 315.29909722 222.30496025 320.11919022 C222.30691542 327.7530332 222.32504579 335.3867872 222.34571838 343.02059937 C222.37340046 353.73117646 222.39641939 364.44174493 222.41333008 375.15234375 C222.41440276 375.82962758 222.41547544 376.50691141 222.41658062 377.20471899 C222.4284035 384.76251514 222.43861225 392.32031208 222.44702148 399.87811279 C222.45009598 402.62154136 222.4531847 405.36496991 222.45629883 408.10839844 C222.45744684 409.12397138 222.45744684 409.12397138 222.45861804 410.16006096 C222.47173891 421.48456093 222.49658105 432.80899468 222.53004223 444.13345563 C222.55172451 451.71029321 222.55988539 459.28698344 222.55764949 466.86384988 C222.55932436 471.5878227 222.57342171 476.31170038 222.59086227 481.03563881 C222.59642778 483.21274812 222.59697867 485.38987743 222.59192467 487.56698799 C222.31568025 514.33272378 222.31568025 514.33272378 234.19921875 537.47265625 C244.99454509 546.62877902 260.49919339 547.24152772 274 548 C274 552.95 274 557.9 274 563 C269.97911486 563.02807445 265.95844131 563.04732664 261.9375 563.0625 C260.86177734 563.07087891 259.78605469 563.07925781 258.67773438 563.08789062 C251.0079648 563.10913652 243.36051404 562.92231837 235.69546509 562.64703369 C218.06190623 562.01479389 200.44736084 561.81221643 182.80297852 561.81469727 C179.64439175 561.81477861 176.48594979 561.80779374 173.32739258 561.79418945 C154.00390831 561.71224732 134.85161691 562.1596509 115.57592773 563.5690918 C110.36365359 563.94352012 105.22412342 564.08939487 100 564 C100 558.72 100 553.44 100 548 C101.20914062 547.93683594 102.41828125 547.87367188 103.6640625 547.80859375 C115.31205092 547.01471117 126.46532683 545.60809646 135.0859375 536.890625 C146.05340087 521.80367539 144.29710777 499.75791465 144.2746582 482.08984375 C144.27901361 479.80970596 144.2841995 477.52956962 144.29014587 475.24943542 C144.30346176 469.09400033 144.30412256 462.93862692 144.30158257 456.78318024 C144.30050726 451.62256382 144.30541079 446.46195961 144.310188 441.30134583 C144.32189016 428.4153216 144.32107293 415.52933641 144.31463119 402.64331055 C144.30947159 391.50824227 144.32069799 380.37326173 144.33972941 369.2382108 C144.35920899 357.75103747 144.36705603 346.26391581 144.36360615 334.77672482 C144.36180491 328.34923677 144.36431195 321.92182899 144.37832069 315.49435425 C144.39102371 309.43998264 144.38883871 303.38578455 144.37590981 297.33141518 C144.3735709 295.12863414 144.37618021 292.9258404 144.38453293 290.72307396 C144.46794784 266.98423488 144.37233892 239.94880573 128.19140625 220.8671875 C117.2631237 210.37058347 102.0617288 208.66078236 87.62353516 208.76757812 C64.45995564 209.25369732 45.8430693 219.78741304 30 236 C23.32528334 243.23288112 18.63970865 251.39375471 14 260 C13.5875 260.73089844 13.175 261.46179688 12.75 262.21484375 C9.54696276 268.13295552 7.86781398 274.56562942 6 281 C5.76390744 281.72164976 5.52781489 282.44329953 5.28456801 283.18681747 C3.39414569 289.08193935 2.33647085 294.6889792 1.82966614 300.85014343 C1.74995003 301.75666615 1.67023391 302.66318887 1.58810216 303.59718198 C0.80476148 313.19737948 0.71069101 322.77126654 0.7253418 332.39770508 C0.72097849 334.33541049 0.71579007 336.27311419 0.70985413 338.21081543 C0.69663443 343.4026493 0.69586556 348.59440965 0.69841743 353.78625703 C0.6994977 358.14507417 0.69457768 362.50387706 0.689812 366.8626911 C0.67877827 377.15090355 0.67824621 387.43907945 0.68432617 397.72729492 C0.69037666 408.29693532 0.6780135 418.86644296 0.6567561 429.43606073 C0.63908743 438.56108338 0.63314657 447.68606394 0.63639385 456.81110305 C0.63819663 462.23950591 0.63567069 467.66781379 0.62167931 473.09620094 C0.60901736 478.19772064 0.6111234 483.29903397 0.62409019 488.40055084 C0.62643646 490.25957754 0.62379231 492.11861917 0.61546707 493.97762871 C0.35684268 517.39304804 0.35684268 517.39304804 10.52734375 537.73046875 C18.15956994 545.00353136 28.14814515 546.89754221 38.3125 547.5625 C40.519375 547.706875 42.72625 547.85125 45 548 C45 553.28 45 558.56 45 564 C39.79316686 564.07771393 34.68787537 564.01670523 29.5 563.5625 C6.83895142 561.71644861 -15.92663065 561.81190202 -38.64575195 561.81469727 C-42.15752345 561.81477821 -45.66916359 561.80786626 -49.1809082 561.79418945 C-69.78531709 561.71512776 -90.26230847 562.057508 -110.8247118 563.43606472 C-117.23680094 563.86554481 -123.57393166 564.09855097 -130 564 C-130 558.72 -130 553.44 -130 548 C-128.56269531 547.91363281 -127.12539063 547.82726562 -125.64453125 547.73828125 C-111.12435668 546.73466981 -97.20946439 545.67517957 -87 534 C-80.32982996 524.62570697 -78.84129298 512.57936299 -78.86577892 501.31730175 C-78.86342669 500.57173316 -78.86107446 499.82616456 -78.85865095 499.05800298 C-78.85200258 496.56373418 -78.85241791 494.06951797 -78.85282898 491.57524109 C-78.84952775 489.76711521 -78.84580164 487.95899006 -78.8416875 486.15086585 C-78.83168869 481.18473876 -78.82795412 476.21862375 -78.82529819 471.25248802 C-78.82138881 465.89501997 -78.81181087 460.53756144 -78.80308533 455.18009949 C-78.7833382 442.24251401 -78.77325665 429.30492777 -78.76435754 416.367331 C-78.75997152 410.27044338 -78.7546055 404.17355663 -78.74936867 398.07666969 C-78.73235769 377.80147196 -78.71786455 357.52627475 -78.71061993 337.25107098 C-78.70871012 331.99151801 -78.70678978 326.73196506 -78.70483398 321.47241211 C-78.70410837 319.51162651 -78.70410837 319.51162651 -78.7033681 317.51122908 C-78.69507166 296.34593304 -78.66974066 275.18069359 -78.63725331 254.01542225 C-78.60415054 232.27141398 -78.58616823 210.52743443 -78.58297569 188.78340083 C-78.58081351 176.58069493 -78.5721077 164.37807154 -78.54651451 152.17539024 C-78.52476352 141.78080746 -78.51677871 131.38632723 -78.52648129 120.99172428 C-78.5310133 115.69329332 -78.52920389 110.39507376 -78.50971985 105.09667206 C-78.49199652 100.23482849 -78.49315968 95.37334911 -78.50861714 90.51150117 C-78.51097938 88.76375256 -78.5067426 87.01597811 -78.49478849 85.26826879 C-78.38567937 68.24557747 -80.04555608 49.48325142 -91.5625 36 C-92.366875 35.34 -93.17125 34.68 -94 34 C-94.721875 33.319375 -95.44375 32.63875 -96.1875 31.9375 C-106.17556343 25.05683408 -118.23591417 24.02296399 -130 23 C-130 18.05 -130 13.1 -130 8 C-126.96232422 8.01571045 -126.96232422 8.01571045 -123.86328125 8.03173828 C-117.06612314 8.0653303 -110.26896069 8.08714633 -103.47174072 8.10362434 C-99.3627879 8.11392861 -95.25392222 8.12783309 -91.14501953 8.15087891 C-67.92989496 8.27745552 -44.86642662 8.14827224 -21.9375 4 C-20.95974609 3.835 -19.98199219 3.67 -18.97460938 3.5 C-14.93977768 2.8006656 -10.98950895 2.05744751 -7.06640625 0.875 C-4 0 -4 0 0 0 Z " fill="#FDF4E3" transform="translate(1021,274)"/>
<path d="M0 0 C2.60424116 -0.02747734 5.20818042 -0.04706373 7.8125 -0.0625 C8.53115234 -0.07087891 9.24980469 -0.07925781 9.99023438 -0.08789062 C13.96497492 -0.1054005 17.83872156 0.06157263 21.7902832 0.49780273 C29.23543852 1.19393938 36.67892171 1.14445833 44.1484375 1.1328125 C45.69341039 1.1334882 47.23838318 1.13446044 48.78335571 1.13571167 C52.00564598 1.137177 55.22790832 1.13507244 58.45019531 1.13037109 C62.54364442 1.1246842 66.63702778 1.12795371 70.73047447 1.13394356 C73.91698688 1.13758907 77.10348419 1.13639227 80.2899971 1.13381577 C81.79760369 1.13315698 83.30521173 1.13393744 84.81281662 1.13629532 C94.97633378 1.14870464 105.02555756 0.77406986 115.1325531 -0.34767151 C117.99051722 -0.63668162 120.20687636 -0.68885139 123 0 C124.76586914 1.6496582 124.76586914 1.6496582 126.34765625 3.86328125 C126.94320312 4.683125 127.53875 5.50296875 128.15234375 6.34765625 C128.76207031 7.22292969 129.37179688 8.09820312 130 9 C130.60457031 9.84949219 131.20914063 10.69898438 131.83203125 11.57421875 C133.76202455 14.30702439 135.66479665 17.05718523 137.5625 19.8125 C138.97760039 21.85695372 140.39296984 23.90122124 141.80859375 25.9453125 C142.51226074 26.96270508 143.21592773 27.98009766 143.94091797 29.02832031 C146.98746351 33.42511333 150.05473049 37.80725464 153.125 42.1875 C153.69565186 43.0021875 154.26630371 43.816875 154.85424805 44.65625 C156.56916693 47.10439932 158.2845147 49.55224755 160 52 C168.03231509 63.46096617 176.04582061 74.93461424 184.03417969 86.42626953 C190.09800618 95.14686679 196.18658311 103.84996444 202.28222656 112.54833984 C205.1896209 116.69786428 208.09468001 120.84902306 211 125 C212.16665575 126.66667431 213.33332241 128.33334098 214.5 130 C216.83333333 133.33333333 219.16666667 136.66666667 221.5 140 C222.07733887 140.8247583 222.65467773 141.6495166 223.24951172 142.49926758 C224.41784967 144.16834507 225.58614384 145.83745322 226.75439453 147.5065918 C229.64513489 151.63662338 232.53659854 155.76614446 235.4296875 159.89453125 C242.31728062 169.72500507 249.18294378 179.57042296 256.03417969 189.42626953 C262.09800618 198.14686679 268.18658311 206.84996444 274.28222656 215.54833984 C277.1896209 219.69786428 280.09468001 223.84902306 283 228 C284.16665575 229.66667431 285.33332241 231.33334098 286.5 233 C293.5 243 300.5 253 307.5 263 C308.07733887 263.8247583 308.65467773 264.6495166 309.24951172 265.49926758 C310.41784967 267.16834507 311.58614384 268.83745322 312.75439453 270.5065918 C315.64513489 274.63662338 318.53659854 278.76614446 321.4296875 282.89453125 C328.31728062 292.72500507 335.18294378 302.57042296 342.03417969 312.42626953 C348.66767465 321.96612659 355.3314029 331.48466246 362 341 C364.43794366 344.47885608 366.87535263 347.95808604 369.3125 351.4375 C369.85084473 352.20537842 370.38918945 352.97325684 370.94384766 353.7644043 C374.21582639 358.43574799 377.47052461 363.11877038 380.71557617 367.80883789 C381.12927208 368.40658272 381.54296799 369.00432755 381.96920013 369.62018585 C382.97955465 371.08006308 383.98978967 372.540023 385 374 C385.04586575 336.50439683 385.08106392 299.00879791 385.10213066 261.51317231 C385.10463181 257.07762915 385.10722048 252.64208605 385.10986328 248.20654297 C385.1103879 247.32357659 385.11091252 246.44061021 385.11145304 245.53088728 C385.12013481 231.2695328 385.1358924 217.0081946 385.15430559 202.74684975 C385.17306684 188.09275337 385.18412983 173.43866547 385.18817699 158.78455758 C385.19090919 149.7560128 385.19951078 140.72751401 385.21583293 131.6989834 C385.22647682 125.49185044 385.22958404 119.28474096 385.22700275 113.07759956 C385.22573287 109.50657052 385.22755654 105.93562136 385.23841095 102.36460686 C386.52183971 64.97143832 386.52183971 64.97143832 372.47265625 31.3671875 C358.05398311 17.56352886 337.87750358 16.39020375 319 15 C319 10.05 319 5.1 319 0 C320.95679688 0.0721875 322.91359375 0.144375 324.9296875 0.21875 C347.95081095 0.99835109 370.96909554 1.11356689 394.00095367 1.12338257 C396.48727315 1.12499176 398.97358325 1.12854754 401.4598999 1.13256836 C405.45626388 1.13850521 409.45258978 1.13859142 413.44895554 1.13431931 C414.931807 1.13333491 416.41466049 1.13388107 417.89751053 1.13615799 C426.50538574 1.14699858 435.0308718 0.88990204 443.61364746 0.22018433 C448.75029457 -0.11380606 453.85422092 -0.06352814 459 0 C459 4.95 459 9.9 459 15 C457.69546875 15.09796875 456.3909375 15.1959375 455.046875 15.296875 C441.94403645 16.37591753 430.59118917 17.80065856 419.7421875 25.828125 C418 27 418 27 416 27 C415.72027344 27.5878125 415.44054687 28.175625 415.15234375 28.78125 C414.08536836 30.83562974 412.89234407 32.61087571 411.5625 34.5 C401.62220804 50.28752252 402.8514062 73.95480602 402.84178162 91.95097351 C402.83720953 93.76713077 402.83220856 95.583287 402.82681805 97.39944202 C402.81330121 102.36847622 402.8058374 107.33750362 402.79939139 112.30655134 C402.79135893 117.67315104 402.77767102 123.03973672 402.76467896 128.40632629 C402.74295646 137.69716132 402.72479658 146.98799779 402.70907402 156.27884483 C402.68633681 169.71175982 402.65819937 183.14465924 402.62875474 196.577561 C402.58112598 218.37290814 402.53784905 240.16826165 402.49731445 261.96362305 C402.45793551 283.1325734 402.41650354 304.3015181 402.37231445 325.47045898 C402.36822804 327.42858014 402.36822804 327.42858014 402.36405908 329.4262593 C402.35037921 335.9753056 402.33665901 342.52435182 402.32291877 349.07339799 C402.2090281 403.38225352 402.1022024 457.69112131 402 512 C398.11638817 512.16391986 394.23366948 512.26347599 390.34765625 512.3515625 C389.24957642 512.39869385 388.15149658 512.4458252 387.0201416 512.49438477 C379.02849255 512.6304257 379.02849255 512.6304257 376.03106117 510.79311752 C373.60646893 508.37353446 371.75423921 505.62300252 370.3359375 502.515625 C367.60431456 497.02271443 364.06990164 492.14403382 360.5625 487.125 C359.2575533 485.21158509 357.95543222 483.29623983 356.65625 481.37890625 C349.26055043 470.49312268 341.77503212 459.67170718 334.25 448.875 C327.59278396 439.32176054 321.01338467 429.7177995 314.46484375 420.08984375 C310.10368222 413.67806192 305.70909513 407.28948323 301.31054688 400.90332031 C299.03844939 397.60353044 296.76942087 394.30163099 294.5 391 C293.58334714 389.66665718 292.66668049 388.33332383 291.75 387 C242.25 315 242.25 315 240.8762207 313.00170898 C239.95556784 311.66262209 239.03483159 310.32359253 238.11401367 308.98461914 C235.88266308 305.73976998 233.65256052 302.49408198 231.42578125 299.24609375 C226.06622751 291.43293873 220.66831807 283.64752861 215.25 275.875 C208.59268788 266.32182831 202.01338386 256.71779831 195.46484375 247.08984375 C191.10368222 240.67806192 186.70909513 234.28948323 182.31054688 227.90332031 C180.03844939 224.60353044 177.76942087 221.30163099 175.5 218 C174.58334714 216.66665718 173.66668049 215.33332383 172.75 214 C134.25 158 134.25 158 132.8762207 156.00170898 C131.95556784 154.66262209 131.03483159 153.32359253 130.11401367 151.98461914 C127.88266308 148.73976998 125.65256052 145.49408198 123.42578125 142.24609375 C118.73835918 135.41277198 114.02710115 128.59691412 109.28833008 121.79907227 C103.1955247 113.0586806 97.12883031 104.30180681 91.125 95.5 C90.55555664 94.66581543 89.98611328 93.83163086 89.39941406 92.97216797 C85.82507556 87.72127011 82.29019166 82.44483592 78.76904297 77.15820312 C78.30876205 76.4674469 77.84848114 75.77669067 77.37425232 75.06500244 C76.2493441 73.37677319 75.12465004 71.68840125 74 70 C73.95416544 115.53845332 73.91895183 161.07690418 73.89786934 206.61537604 C73.8953681 211.99854826 73.89277944 217.38172043 73.89013672 222.76489258 C73.88934979 224.37234871 73.88934979 224.37234871 73.88854696 226.0122787 C73.87985783 243.33620747 73.8640961 260.66012289 73.84569441 277.98404375 C73.82695379 295.77617992 73.81587449 313.56830911 73.81182301 331.36045474 C73.80908657 342.32830156 73.80046156 353.29611064 73.78416707 364.26394584 C73.77354875 371.79750092 73.77041029 379.33103666 73.77299725 386.86459867 C73.77427103 391.20307418 73.7723974 395.541484 73.76158905 399.87994766 C73.69521387 424.50337639 73.69521387 424.50337639 76 449 C76.15511992 450.26132657 76.31023983 451.52265314 76.47006035 452.82220173 C78.00381049 465.09516119 81.74550954 473.55942238 91 482 C104.47302086 492.40387711 123.79850308 493.33934657 140 495 C140 499.62 140 504.24 140 509 C93.8 509 47.6 509 0 509 C0 504.38 0 499.76 0 495 C1.37671875 494.75765625 2.7534375 494.5153125 4.171875 494.265625 C26.12550916 490.66529024 26.12550916 490.66529024 44.3125 478.625 C59.17779908 455.50120143 56.45274433 424.52008067 56.39217401 398.09377062 C56.38527908 393.62683166 56.39591527 389.15992525 56.40411377 384.69299316 C56.41734229 375.98118321 56.41462298 367.26945149 56.40587585 358.55763867 C56.39905852 351.47033271 56.39819991 344.38304844 56.4014473 337.29574013 C56.401907 336.28121775 56.40236669 335.26669537 56.40284032 334.22142989 C56.40379964 332.15953713 56.40477228 330.09764437 56.4057581 328.03575162 C56.41427952 308.77565975 56.404528 289.51561096 56.388357 270.25552616 C56.3749466 253.77360075 56.37729419 237.29173873 56.39111328 220.80981445 C56.4072092 201.60372909 56.4134665 182.39768129 56.40427649 163.19159013 C56.40332098 161.13945377 56.40237786 159.08731741 56.4014473 157.03518105 C56.40098447 156.02584899 56.40052164 155.01651694 56.40004479 153.97659906 C56.39746767 146.90536674 56.40179792 139.8341585 56.40888596 132.76292992 C56.41734548 124.13510056 56.41492761 115.50735296 56.39904372 106.87953284 C56.391222 102.487952 56.38796378 98.09650692 56.39799118 93.70492744 C58.18994345 58.56182891 58.18994345 58.56182891 46 27 C40.89870932 22.26971227 35.71908404 19.65223378 29 18 C28.21367188 17.80664062 27.42734375 17.61328125 26.6171875 17.4140625 C17.85916034 15.56603842 8.91658407 15.37275049 0 15 C0 10.05 0 5.1 0 0 Z " fill="#FDF4E3" transform="translate(30,328)"/>
<path d="M0 0 C6.06937278 5.61166596 11.01515641 11.93438676 15.75 18.6875 C16.30171875 19.47253906 16.8534375 20.25757813 17.421875 21.06640625 C37.27410712 51.75198009 39.75 90.49487202 39.75 125.6875 C-32.19 125.6875 -104.13 125.6875 -178.25 125.6875 C-179.52153393 171.10386716 -179.52153393 171.10386716 -174.3125 216.25 C-174.13557617 217.0853125 -173.95865234 217.920625 -173.77636719 218.78125 C-173.2809598 221.0865577 -172.76832591 223.38725954 -172.25 225.6875 C-172.03730469 226.67621094 -171.82460938 227.66492188 -171.60546875 228.68359375 C-164.90658756 256.38670886 -148.34010307 285.88302123 -124.203125 301.8984375 C-99.34504685 316.95796104 -74.71697353 321.67458934 -46.16796875 314.72265625 C-30.78459415 310.70416364 -17.4896148 303.87578271 -5.25 293.6875 C-4.32703125 292.93984375 -3.4040625 292.1921875 -2.453125 291.421875 C8.59277748 281.99853446 16.26040755 270.13840018 23.19140625 257.515625 C24.75 254.6875 24.75 254.6875 26.75 251.6875 C30.41172475 252.31428171 33.6318995 253.33201846 37.0625 254.75 C37.94550781 255.11222656 38.82851563 255.47445313 39.73828125 255.84765625 C40.40214844 256.12480469 41.06601562 256.40195312 41.75 256.6875 C28.87916819 295.01555716 2.0933835 327.42585221 -34.05371094 345.6328125 C-71.79429517 363.75634784 -118.11426806 362.82816118 -157.1640625 349.3828125 C-172.32360074 343.63712028 -186.72663099 336.00605052 -199.25 325.6875 C-200.29871186 324.85190067 -201.34821423 324.01729267 -202.3984375 323.18359375 C-208.29259778 318.4518024 -213.49735754 313.55970257 -218.25 307.6875 C-218.92160156 306.92566406 -219.59320312 306.16382813 -220.28515625 305.37890625 C-252.34120795 268.23459238 -262.50930797 217.61476155 -262.4375 169.875 C-262.43623108 169.00834717 -262.43496216 168.14169434 -262.43365479 167.2487793 C-262.32788642 129.30853073 -256.72751395 92.15097465 -240.25 57.6875 C-239.67790627 56.45204468 -239.10626841 55.21637813 -238.53515625 53.98046875 C-221.39010531 18.03637373 -189.94420215 -11.16809352 -152.37109375 -24.67578125 C-146.31688973 -26.69950777 -140.14746416 -28.22395723 -133.9375 -29.6875 C-132.34639404 -30.06394653 -132.34639404 -30.06394653 -130.72314453 -30.44799805 C-85.54049555 -40.49831747 -34.87952466 -31.17625257 0 0 Z " fill="#FCF3E2" transform="translate(806.25,489.3125)"/>
<path d="M0 0 C0.00059709 1.07268928 0.00119418 2.14537856 0.00180936 3.25057358 C0.02839875 50.5489416 0.05994832 97.84730289 0.11663818 145.14564514 C0.11792445 146.22057391 0.11792445 146.22057391 0.1192367 147.3172184 C0.13790443 162.89309585 0.15745716 178.46897206 0.17792095 194.04484725 C0.18795171 201.68378793 0.197787 209.32272886 0.20751953 216.96166992 C0.20849134 217.72181679 0.20946314 218.48196366 0.2104644 219.26514528 C0.24184447 243.88223997 0.26032933 268.49932371 0.27209247 293.11643493 C0.28425386 318.42393412 0.30949371 343.73138762 0.35107614 369.03885637 C0.35694981 372.61732517 0.36267473 376.1957942 0.36830902 379.77426338 C0.36997921 380.83065421 0.36997921 380.83065421 0.37168314 381.90838627 C0.38918993 393.2229656 0.39300157 404.53750965 0.39162921 415.85210071 C0.39054244 427.24046914 0.40435269 438.6287285 0.43216428 450.01707011 C0.44678931 456.18211393 0.45503094 462.34698864 0.44580269 468.51204681 C0.43748462 474.16487452 0.44775619 479.81736319 0.47233662 485.47014076 C0.47799636 487.50676144 0.47704216 489.54341451 0.46851245 491.58002519 C0.36256954 515.75307337 0.36256954 515.75307337 10.6796875 536.8828125 C15.51949128 541.52824665 20.64019631 544.0169431 27 546 C27.68449219 546.21398437 28.36898438 546.42796875 29.07421875 546.6484375 C36.52229071 548.60621642 44.35390976 548.61448284 52 549 C52 553.95 52 558.9 52 564 C47.66643103 564.02338257 43.33309438 564.04315816 38.99951172 564.05493164 C37.53563686 564.05985677 36.0717666 564.06659692 34.60791016 564.07543945 C26.27073126 564.1244139 17.98415081 563.98320522 9.65991211 563.50219727 C-0.47547162 562.96010047 -10.58271109 562.85348353 -20.73046875 562.8671875 C-22.54445916 562.86651055 -24.35844947 562.86553731 -26.17243958 562.86428833 C-29.93617636 562.86283082 -33.6998891 562.86490293 -37.46362305 562.86962891 C-42.23686472 562.87533743 -47.01005026 562.87202753 -51.78328991 562.86605644 C-55.516387 562.86240822 -59.24947122 562.86360857 -62.98256874 562.86618423 C-64.74085815 562.86684113 -66.49914881 562.86606957 -68.25743675 562.86370468 C-78.27881496 562.8531715 -88.22266273 563.08866784 -98.22198486 563.77638245 C-104.33647188 564.13829381 -110.43824609 564.10730321 -116.5625 564.0625 C-117.77357422 564.05798828 -118.98464844 564.05347656 -120.23242188 564.04882812 C-123.15497041 564.03727655 -126.07749272 564.01935435 -129 564 C-129 559.05 -129 554.1 -129 549 C-127.63488281 548.91363281 -126.26976562 548.82726562 -124.86328125 548.73828125 C-114.11823119 547.95562681 -104.71501498 546.96707533 -95 542 C-94.29746094 541.66484375 -93.59492187 541.3296875 -92.87109375 540.984375 C-85.51917031 536.728834 -82.65422993 527.66628011 -80.43926907 519.91496563 C-78.39870745 511.55467465 -78.58055029 503.29032054 -78.61231995 494.73945618 C-78.60814161 492.90155103 -78.60266136 491.06364846 -78.59600013 489.22575063 C-78.58159209 484.20052945 -78.58577575 479.17547293 -78.59316695 474.15024292 C-78.59790792 468.72061459 -78.58538044 463.2910214 -78.57514954 457.86140442 C-78.55797345 447.23330715 -78.5571192 436.60526904 -78.56236244 425.9771615 C-78.56640818 417.33485255 -78.56495577 408.69256104 -78.55961418 400.05025291 C-78.55849155 398.2033375 -78.55849155 398.2033375 -78.55734624 396.31911066 C-78.55581471 393.81752449 -78.55427636 391.31593833 -78.55273127 388.81435218 C-78.5394011 366.0340666 -78.54372116 343.25381188 -78.55494181 320.47352694 C-78.56503913 299.70733684 -78.5566962 278.94122764 -78.53344727 258.17504883 C-78.50736254 234.81674069 -78.49458621 211.45848162 -78.50163502 188.10015839 C-78.50512341 175.74274985 -78.50292039 163.3854077 -78.48538399 151.02800941 C-78.47063774 140.5065139 -78.47005808 129.98513152 -78.4874549 119.46363816 C-78.49594795 114.10049718 -78.49815599 108.73755808 -78.48280334 103.3744278 C-78.46889539 98.45484443 -78.47379748 93.53563476 -78.49304258 88.61607268 C-78.49678429 86.84628972 -78.49393405 85.07647639 -78.48343093 83.30672065 C-78.38800513 65.98125194 -80.31393731 47.00447028 -92.8359375 33.81640625 C-103.12219717 25.18263234 -116.18242162 24.37979597 -129 23 C-129 18.05 -129 13.1 -129 8 C-127.44345703 8.10828125 -127.44345703 8.10828125 -125.85546875 8.21875 C-89.54317372 10.50425275 -51.70340365 10.47635376 -16 3 C-14.43533726 2.68917582 -12.87024683 2.38049498 -11.3046875 2.07421875 C-8.72338692 1.56769829 -6.1465822 1.04786533 -3.5703125 0.515625 C-1 0 -1 0 0 0 Z " fill="#FCF3E2" transform="translate(1666,273)"/>
<path d="M0 0 C0.00097681 0.67065504 0.00195362 1.34131009 0.00296003 2.03228801 C0.06130501 41.83163821 0.13515679 81.63093285 0.22898628 121.43021589 C0.24025367 126.21511437 0.25139225 131.00001314 0.26245117 135.78491211 C0.2657567 137.21371828 0.2657567 137.21371828 0.269129 138.67138923 C0.30444588 154.06962871 0.32934163 169.46786814 0.35034702 184.86613303 C0.37215385 200.68077093 0.4052504 216.49535655 0.44870156 232.30994993 C0.47513437 242.05863069 0.49289129 251.80724635 0.49934604 261.55596114 C0.50462564 268.25228588 0.52092826 274.94852891 0.54566566 281.64480978 C0.55959309 285.50103798 0.56888462 289.35712021 0.56500816 293.21337509 C-0.1446145 323.00342698 -0.1446145 323.00342698 10.1875 350.3125 C21.66585715 361.28070794 37.02179272 361.76393435 52 363 C52 367.95 52 372.9 52 378 C38.26271601 378.10027215 24.57516942 378.03408223 10.84765625 377.50390625 C-5.52394722 376.92871955 -21.88371927 376.84566512 -38.26416016 376.86962891 C-42.23132551 376.87536521 -46.19842427 376.87191419 -50.16558743 376.86617756 C-65.86490718 376.84705144 -81.51641665 376.97787443 -97.19970703 377.77734375 C-103.78023308 378.10600397 -110.3493002 378.11291 -116.9375 378.0625 C-118.71350586 378.05573242 -118.71350586 378.05573242 -120.52539062 378.04882812 C-123.35028415 378.03739131 -126.1751505 378.01948172 -129 378 C-129 373.05 -129 368.1 -129 363 C-127.69546875 362.90203125 -126.3909375 362.8040625 -125.046875 362.703125 C-111.69353864 361.60345352 -98.4493047 360.31211138 -88 351 C-75.58055792 335.99706496 -77.70663329 314.05421262 -77.74121094 295.84545898 C-77.73849632 293.43249405 -77.73493276 291.01952994 -77.73059082 288.60656738 C-77.72245985 282.76651043 -77.72359165 276.92651141 -77.7294161 271.08645277 C-77.73395605 266.3353059 -77.73453548 261.58417341 -77.73236847 256.83302498 C-77.732062 256.15358522 -77.73175554 255.47414546 -77.73143978 254.77411662 C-77.73080025 253.39332087 -77.73015183 252.01252512 -77.7294946 250.63172937 C-77.72380905 237.72316488 -77.73032145 224.81462892 -77.74109533 211.90606911 C-77.75003125 200.85801944 -77.74847501 189.81001181 -77.73925781 178.76196289 C-77.72852719 165.89407618 -77.72435608 153.02621439 -77.73048234 140.15832382 C-77.73111936 138.78326897 -77.7317481 137.40821412 -77.73236847 136.03315926 C-77.73267702 135.35681881 -77.73298557 134.68047835 -77.73330347 133.98364274 C-77.7350219 129.24413395 -77.73213385 124.50464113 -77.72740936 119.76513481 C-77.72160659 113.37348186 -77.72568626 106.98190785 -77.73719788 100.59026337 C-77.73982871 98.25308678 -77.73910653 95.91590349 -77.73467255 93.57872963 C-77.57425274 61.70503378 -77.57425274 61.70503378 -91.77734375 33.96875 C-101.60200038 24.48564585 -115.99113631 23.11504546 -129 22 C-129 17.05 -129 12.1 -129 7 C-125.31263672 7.23976563 -125.31263672 7.23976563 -121.55078125 7.484375 C-109.76904796 8.17290091 -97.98648315 8.2435907 -86.1875 8.25 C-85.06337708 8.25067474 -83.93925415 8.25134949 -82.78106689 8.25204468 C-57.39918954 8.22791527 -33.32154389 6.09175387 -8.51586914 0.41137695 C-5.64491363 -0.05806119 -2.90483426 -0.0262725 0 0 Z " fill="#FDF4E3" transform="translate(1454,459)"/>
<path d="M0 0 C2.26686669 1.67517606 4.28587938 3.42548663 6.3046875 5.390625 C6.90410156 5.96296875 7.50351562 6.5353125 8.12109375 7.125 C36.35534255 36.68569001 37.3046875 87.01049243 37.3046875 124.390625 C-9.5553125 124.390625 -56.4153125 124.390625 -104.6953125 124.390625 C-104.6953125 83.96992474 -93.60184018 40.75997997 -65.5078125 10.765625 C-57.37560074 2.857364 -47.52446949 -2.40944046 -36.6953125 -5.609375 C-36.07398438 -5.79886719 -35.45265625 -5.98835938 -34.8125 -6.18359375 C-22.82398111 -8.59456895 -10.44614436 -6.23740794 0 0 Z " fill="#212722" transform="translate(732.6953125,476.609375)"/>
<path d="M0 0 C1.51339966 0.01135986 1.51339966 0.01135986 3.05737305 0.02294922 C17.69797653 0.34549689 29.97020188 5.42179203 40.80859375 15.40625 C50.09566978 25.44633219 54.37231153 37.4892263 54.22631836 51.00488281 C53.63611578 64.22897073 47.76318613 75.57337923 38.3359375 84.71875 C24.53248445 96.46264021 8.75142829 98.56557801 -8.79345703 97.67578125 C-21.23334415 96.49906776 -32.27633626 89.29528621 -40.71875 80.375 C-50.92344045 67.96929788 -52.50766556 54.97820937 -51.3125 39.4375 C-49.53982588 27.7230785 -42.29164872 17.84907911 -33.3125 10.4375 C-22.73904768 3.08887929 -12.82880583 -0.1353907 0 0 Z " fill="#FCF3E3" transform="translate(1410.3125,284.5625)"/>
<path d="M0 0 C9.97407029 7.90468374 15.28054589 19.60497867 17 32 C18.05093239 46.78812006 15.71651939 58.41652841 6.34765625 70.4296875 C-3.47586087 81.18488594 -16.20564002 87.11881219 -30.71875 88.203125 C-46.78321461 88.4738744 -59.75506044 84.27902247 -71.4375 73.0625 C-82.22364626 61.63679058 -85.37624601 50.21749831 -85.2109375 34.62890625 C-84.47734858 22.0084599 -79.19940508 10.7249963 -70 2 C-49.22419626 -15.23870454 -21.89150224 -15.39908951 0 0 Z " fill="#FCF3E2" transform="translate(1860,760)"/>
</svg>
